<svg width="44" height="31" viewBox="0 0 44 31" fill="none" xmlns="http://www.w3.org/2000/svg">
<path d="M2.49967 0.125H41.4997C42.0743 0.125 42.6254 0.304985 43.0317 0.625359C43.4381 0.945734 43.6663 1.38026 43.6663 1.83333V29.1667C43.6663 29.6197 43.4381 30.0543 43.0317 30.3746C42.6254 30.695 42.0743 30.875 41.4997 30.875H2.49967C1.92504 30.875 1.37394 30.695 0.96761 30.3746C0.561281 30.0543 0.333008 29.6197 0.333008 29.1667V1.83333C0.333008 1.38026 0.561281 0.945734 0.96761 0.625359C1.37394 0.304985 1.92504 0.125 2.49967 0.125V0.125ZM39.333 7.36492L22.1557 19.4941L4.66634 7.32733V27.4583H39.333V7.36492ZM5.77351 3.54167L22.1318 14.9226L38.254 3.54167H5.77351Z" fill="#818181"/>
</svg>
