<svg width="52" height="50" viewBox="0 0 52 50" fill="none" xmlns="http://www.w3.org/2000/svg">
<path d="M25.9997 45.8332C14.0332 45.8332 4.33301 36.5061 4.33301 24.9998C4.33301 13.4936 14.0332 4.1665 25.9997 4.1665C37.9662 4.1665 47.6663 13.4936 47.6663 24.9998C47.6663 36.5061 37.9662 45.8332 25.9997 45.8332ZM15.1945 38.0332C18.2615 40.3909 22.073 41.6725 25.9997 41.6665C30.268 41.6665 34.1745 40.1832 37.1948 37.7248C35.7837 36.3326 34.0966 35.2267 32.2333 34.4723C30.3699 33.718 28.3681 33.3307 26.3463 33.3332C24.2503 33.3308 22.1766 33.7474 20.2569 34.5565C18.3371 35.3656 16.6132 36.5495 15.1945 38.0332V38.0332ZM12.1677 35.0415C13.9887 33.1833 16.1861 31.7034 18.6246 30.693C21.0632 29.6826 23.691 29.1631 26.3463 29.1665C28.9066 29.1633 31.4423 29.6464 33.8078 30.5881C36.1733 31.5298 38.3221 32.9116 40.1307 34.654C41.9855 32.1438 43.0809 29.1887 43.2952 26.1163C43.5096 23.044 42.8346 19.9746 41.3451 17.2487C39.8556 14.5228 37.6098 12.247 34.8569 10.6737C32.1041 9.10039 28.9517 8.29117 25.7497 8.33578C22.5476 8.38039 19.4209 9.2771 16.7166 10.9264C14.0123 12.5757 11.8361 14.9132 10.4293 17.6794C9.02259 20.4457 8.44035 23.5326 8.74719 26.5977C9.05404 29.6627 10.238 32.5862 12.1677 35.0436V35.0415ZM25.9997 27.0832C23.7011 27.0832 21.4967 26.2052 19.8714 24.6424C18.2461 23.0796 17.333 20.96 17.333 18.7498C17.333 16.5397 18.2461 14.4201 19.8714 12.8573C21.4967 11.2945 23.7011 10.4165 25.9997 10.4165C28.2982 10.4165 30.5026 11.2945 32.1279 12.8573C33.7532 14.4201 34.6663 16.5397 34.6663 18.7498C34.6663 20.96 33.7532 23.0796 32.1279 24.6424C30.5026 26.2052 28.2982 27.0832 25.9997 27.0832ZM25.9997 22.9165C27.1489 22.9165 28.2511 22.4775 29.0638 21.6961C29.8765 20.9147 30.333 19.8549 30.333 18.7498C30.333 17.6448 29.8765 16.585 29.0638 15.8036C28.2511 15.0222 27.1489 14.5832 25.9997 14.5832C24.8504 14.5832 23.7482 15.0222 22.9355 15.8036C22.1229 16.585 21.6663 17.6448 21.6663 18.7498C21.6663 19.8549 22.1229 20.9147 22.9355 21.6961C23.7482 22.4775 24.8504 22.9165 25.9997 22.9165Z" fill="#818181"/>
</svg>
