<svg width="51" height="51" viewBox="0 0 51 51" fill="none" xmlns="http://www.w3.org/2000/svg">
<path d="M38.25 16.9995H42.5C43.0636 16.9995 43.6041 17.2234 44.0026 17.6219C44.4011 18.0204 44.625 18.5609 44.625 19.1245V44.6245C44.625 45.1881 44.4011 45.7286 44.0026 46.1271C43.6041 46.5256 43.0636 46.7495 42.5 46.7495H8.5C7.93641 46.7495 7.39591 46.5256 6.9974 46.1271C6.59888 45.7286 6.375 45.1881 6.375 44.6245V19.1245C6.375 18.5609 6.59888 18.0204 6.9974 17.6219C7.39591 17.2234 7.93641 16.9995 8.5 16.9995H12.75V14.8745C12.75 11.493 14.0933 8.24999 16.4844 5.8589C18.8755 3.46781 22.1185 2.12451 25.5 2.12451C28.8815 2.12451 32.1245 3.46781 34.5156 5.8589C36.9067 8.24999 38.25 11.493 38.25 14.8745V16.9995ZM34 16.9995V14.8745C34 12.6202 33.1045 10.4582 31.5104 8.8641C29.9163 7.27004 27.7543 6.37451 25.5 6.37451C23.2457 6.37451 21.0837 7.27004 19.4896 8.8641C17.8955 10.4582 17 12.6202 17 14.8745V16.9995H34ZM23.375 29.7495V33.9995H27.625V29.7495H23.375ZM14.875 29.7495V33.9995H19.125V29.7495H14.875ZM31.875 29.7495V33.9995H36.125V29.7495H31.875Z" fill="#818181"/>
</svg>
